<?xml version="1.0" standalone="no"?>
<!DOCTYPE svg PUBLIC "-//W3C//DTD SVG 20010904//EN"
 "http://www.w3.org/TR/2001/REC-SVG-20010904/DTD/svg10.dtd">
<svg version="1.0" xmlns="http://www.w3.org/2000/svg"
 width="482.000000pt" height="482.000000pt" viewBox="0 0 482.000000 482.000000"
 preserveAspectRatio="xMidYMid meet">
<metadata>
Created by potrace 1.14, written by Peter Selinger 2001-2017
</metadata>
<g transform="translate(0.000000,482.000000) scale(0.100000,-0.100000)"
fill="#000000" stroke="none">
<path d="M2315 4595 c-59 -14 -147 -53 -153 -67 -2 -5 -7 -8 -12 -8 -5 0 -54
-27 -110 -60 -56 -33 -103 -60 -106 -60 -2 0 -32 -17 -66 -38 -35 -21 -83 -50
-108 -64 -37 -21 -153 -88 -333 -192 -87 -50 -626 -361 -657 -378 -196 -111
-274 -201 -318 -368 -2 -8 -4 -431 -5 -939 -2 -989 -2 -989 48 -1096 49 -103
118 -162 338 -290 109 -63 201 -115 204 -115 2 0 17 -8 31 -19 15 -10 50 -31
77 -46 28 -15 122 -69 210 -120 895 -519 901 -522 970 -532 25 -3 45 -10 45
-14 0 -5 23 -9 50 -9 28 0 50 5 50 10 0 6 11 10 24 10 36 0 131 36 186 70 39
24 152 90 155 90 2 0 39 21 82 46 43 26 98 58 123 72 25 14 184 106 353 204
169 98 312 178 317 178 6 0 10 5 10 10 0 6 4 10 9 10 4 0 58 29 119 64 61 36
131 76 154 89 154 87 220 132 266 182 58 63 100 145 116 225 8 39 11 332 10
980 -1 509 -4 932 -6 940 -28 103 -76 189 -145 254 -30 28 -193 128 -328 202
-11 6 -45 26 -75 44 -30 18 -73 43 -95 55 -22 13 -229 132 -460 265 -231 134
-477 276 -546 316 -70 40 -148 80 -174 88 -68 24 -179 28 -250 11z"/>
</g>
</svg>
