<?xml version="1.0" encoding="UTF-8"?>
<!-- Generated by Pixelmator Pro 3.1.1 -->
<svg width="600" height="693" viewBox="0 0 600 693" xmlns="http://www.w3.org/2000/svg" xmlns:xlink="http://www.w3.org/1999/xlink">
    <g id="Light">
        <path id="Path" fill="#39729e" stroke="none" d="M 576.080933 187.878937 L 300 28.424622 L 300 28.424622 L 23.919079 187.878937 L 23.919079 506.835114 L 300 666.289368 L 576.080933 506.835114 Z"/>
        <path id="path1" fill="#ffffff" stroke="none" d="M 600 519.833374 L 600 173.238098 L 576.080933 159.430481 L 349.242371 28.400879 L 300 0 L 250.757629 28.424622 L 23.919079 159.454285 L -0 173.238098 L -0 519.738098 L 23.919079 533.545715 L 253.613632 666.194153 L 300.071411 692.976196 L 346.529144 666.194153 L 576.223755 533.545715 L 600 519.833374 Z M 23.919079 506.835114 L 23.919079 187.878937 L 300 28.424622 L 300 28.424622 L 576.080933 187.878937 L 576.080933 506.835114 L 300 666.289368 L 23.919079 506.835114 Z"/>
        <path id="Rectangle" fill="#ffffff" fill-rule="evenodd" stroke="none" d="M 290 678 L 310 678 L 310 18 L 290 18 Z"/>
        <path id="Rectangle-copy" fill="#ffffff" fill-rule="evenodd" stroke="none" d="M 591 358 L 591 338 L 12 338 L 12 358 Z"/>
    </g>
</svg>
